<svg t="1779093555166" class="icon" viewBox="0 0 1024 1024" version="1.1" xmlns="http://www.w3.org/2000/svg" p-id="16860" width="200" height="200"><path d="M901.050156 489.040342c21.818961 0 42.166262 5.470737 60.785962 16.316232a126.146868 126.146868 0 0 1 45.013605 44.46973 113.477794 113.477794 0 0 1 0 119.268457 130.625834 130.625834 0 0 1-45.013605 45.013605 115.39735 115.39735 0 0 1-60.785962 16.924091H827.339179v196.530614a92.458648 92.458648 0 0 1-28.121506 67.856329A91.818796 91.818796 0 0 1 731.361344 1023.764854h-184.917296v-72.559243a127.650521 127.650521 0 0 0-17.595936-66.160721 129.985981 129.985981 0 0 0-47.988918-47.413051 131.489634 131.489634 0 0 0-66.736588-17.595936c-24.218407 0-46.389287 5.822655-66.736588 17.595936-20.315308 11.773281-36.471577 27.513646-48.564785 47.413051a124.675208 124.675208 0 0 0-18.171803 66.160721V1023.764854H95.988075a92.49064 92.49064 0 0 1-67.856329-28.121505A92.458648 92.458648 0 0 1 0.01024 927.787019v-184.885303h73.710977c23.418592 0 45.013605-6.046604 64.91301-18.139811a135.104799 135.104799 0 0 0 47.41305-48.564784c11.645311-20.219331 17.595936-42.518181 17.595937-66.736588 0-24.218407-5.822655-46.389287-17.595937-66.736588a132.001516 132.001516 0 0 0-46.869176-47.988918 125.475023 125.475023 0 0 0-65.456884-17.595936H0.01024V292.509729c0-26.521875 9.373835-49.140652 28.121506-67.888323A92.49064 92.49064 0 0 1 95.988075 196.531893h196.562606V122.820916c0-21.818961 5.470737-42.166262 16.316232-60.785962a126.146868 126.146868 0 0 1 44.469731-45.013605A115.909232 115.909232 0 0 1 414.250576 0.00128c21.818961 0 41.910321 5.598707 60.210096 16.924091a128.354358 128.354358 0 0 1 43.893863 45.013605 118.052737 118.052737 0 0 1 16.316232 60.785962v73.806955h196.562606c26.521875 0 49.140652 9.373835 67.888322 28.089513 18.74767 18.74767 28.217484 41.366447 28.217484 67.888323v196.530613h73.710977z" p-id="16861" fill="#d81e06"></path></svg>